<svg width="100" height="100" viewBox="0 0 100 100" fill="none" xmlns="http://www.w3.org/2000/svg">
<path d="M37.5 64.3388V49.2185C37.5 46.2029 35.0469 43.7498 32.0312 43.7498C31.1891 43.7498 30.4 43.9576 29.6875 44.2982V35.156C29.6875 32.1404 27.2344 29.6873 24.2188 29.6873C23.3766 29.6873 22.5875 29.8951 21.875 30.2357V25.781C21.875 22.7654 19.4219 20.3123 16.4062 20.3123C13.8672 20.3123 11.7438 22.0623 11.1328 24.4123C10.141 23.7787 8.98939 23.4405 7.8125 23.4373C4.36562 23.4373 1.5625 26.2404 1.5625 29.6873V56.2498C1.5625 56.5107 1.62812 56.7685 1.75312 56.9982L11.1281 74.1857C11.2 74.3154 11.2906 74.4373 11.3953 74.542L23.6281 86.7748C24.5038 87.6558 24.9967 88.8467 25 90.0889V96.8748C25 97.2892 25.1646 97.6866 25.4576 97.9796C25.7507 98.2727 26.1481 98.4373 26.5625 98.4373H45.3125C45.7269 98.4373 46.1243 98.2727 46.4174 97.9796C46.7104 97.6866 46.875 97.2892 46.875 96.8748V77.4638C46.8774 75.4843 46.126 73.5781 44.7734 72.1326L37.5 64.3388ZM32.0312 46.8748C33.3234 46.8748 34.375 47.9264 34.375 49.2185V60.9904L29.6875 55.9685V49.2185C29.6875 47.9264 30.7391 46.8748 32.0312 46.8748ZM24.2188 32.8123C25.5109 32.8123 26.5625 33.8639 26.5625 35.156V52.6201L25.5062 51.4888C25.0671 51.0198 24.5364 50.6457 23.9471 50.3896C23.3578 50.1335 22.7223 50.0008 22.0797 49.9998H21.875V35.156C21.875 33.8639 22.9266 32.8123 24.2188 32.8123ZM14.0625 25.781C14.0625 24.4888 15.1141 23.4373 16.4062 23.4373C17.6984 23.4373 18.75 24.4888 18.75 25.781V51.2154C18.0562 51.8404 17.5391 52.6607 17.3156 53.5998L14.0625 49.4592V29.6873V25.781ZM43.75 95.3123H28.125V90.0889C28.125 88.0029 27.3125 86.0404 25.8375 84.5654L13.7641 72.492L4.6875 55.8513V29.6873C4.6875 27.9639 6.08906 26.5623 7.8125 26.5623C9.53594 26.5623 10.9375 27.9639 10.9375 29.6873V49.9998C10.9376 50.35 11.0553 50.6901 11.2719 50.9654L28.4594 72.8404L30.9156 70.9107L20.3125 57.4138V54.6873C20.3125 53.8264 21.0141 53.1248 21.875 53.1248H22.0797C22.5109 53.1248 22.9266 53.306 23.2219 53.6201L42.4906 74.2638C43.3016 75.1357 43.75 76.2717 43.75 77.4638V95.3123ZM92.1875 23.4373C90.9656 23.4373 89.8328 23.8029 88.8672 24.4123C88.2562 22.0623 86.1328 20.3123 83.5938 20.3123C80.5781 20.3123 78.125 22.7654 78.125 25.781V30.2357C77.3948 29.8793 76.5938 29.6919 75.7812 29.6873C72.7656 29.6873 70.3125 32.1404 70.3125 35.156V44.2982C69.5823 43.9418 68.7813 43.7544 67.9688 43.7498C64.9531 43.7498 62.5 46.2029 62.5 49.2185V64.3388L55.2266 72.1326C53.874 73.5781 53.1226 75.4843 53.125 77.4638V96.8748C53.125 97.2892 53.2896 97.6866 53.5826 97.9796C53.8757 98.2727 54.2731 98.4373 54.6875 98.4373H73.4375C73.8519 98.4373 74.2493 98.2727 74.5424 97.9796C74.8354 97.6866 75 97.2892 75 96.8748V90.0889C75 88.8545 75.5 87.6482 76.3719 86.7748L88.6047 74.542C88.7098 74.4362 88.7997 74.3163 88.8719 74.1857L98.2469 56.9982C98.3719 56.7685 98.4375 56.5107 98.4375 56.2498V29.6873C98.4375 26.2404 95.6344 23.4373 92.1875 23.4373ZM81.25 25.781C81.25 24.4888 82.3016 23.4373 83.5938 23.4373C84.8859 23.4373 85.9375 24.4888 85.9375 25.781V49.4592L82.6844 53.5982C82.459 52.6764 81.9587 51.8449 81.25 51.2139V35.156V25.781ZM73.4375 35.156C73.4375 33.8639 74.4891 32.8123 75.7812 32.8123C77.0734 32.8123 78.125 33.8639 78.125 35.156V49.9998H77.9203C76.625 49.9998 75.3766 50.5435 74.4937 51.4888L73.4375 52.6217V49.2185V35.156ZM65.625 49.2185C65.625 47.9264 66.6766 46.8748 67.9688 46.8748C69.2609 46.8748 70.3125 47.9264 70.3125 49.2185V55.9685L65.625 60.9904V49.2185ZM95.3125 55.8513L86.2359 72.4904L74.1625 84.5638C73.435 85.2879 72.8583 86.149 72.4656 87.0973C72.073 88.0457 71.8722 89.0624 71.875 90.0889V95.3123H56.25V77.4638C56.25 76.2717 56.6984 75.1357 57.5109 74.2654L76.7797 53.6217C76.9256 53.4651 77.1022 53.3403 77.2984 53.2548C77.4946 53.1693 77.7063 53.1251 77.9203 53.1248H78.125C78.9859 53.1248 79.6875 53.8264 79.6875 54.6873V57.4138L69.0844 70.9092L71.5406 72.8389L88.7281 50.9639C88.945 50.6893 89.0628 50.3496 89.0625 49.9998V29.6873C89.0625 27.9639 90.4641 26.5623 92.1875 26.5623C93.9109 26.5623 95.3125 27.9639 95.3125 29.6873V55.8513ZM73.4094 14.4342C73.2903 12.3726 72.7071 10.3646 71.7034 8.55997C70.6996 6.75535 69.3012 5.20078 67.6125 4.01229C65.1816 2.30475 62.2532 1.45148 59.2856 1.58606C56.318 1.72064 53.4788 2.83548 51.2125 4.75604L50 5.78416L48.7859 4.75604C46.5196 2.83548 43.6804 1.72064 40.7128 1.58606C37.7452 1.45148 34.8168 2.30475 32.3859 4.01229C30.6973 5.20078 29.2988 6.75535 28.2951 8.55997C27.2913 10.3646 26.7081 12.3726 26.5891 14.4342C26.4509 16.5021 26.7817 18.5744 27.5569 20.4965C28.332 22.4186 29.5315 24.1407 31.0656 25.5342L48.9484 41.7982C49.2361 42.06 49.6111 42.205 50 42.205C50.3889 42.205 50.7639 42.06 51.0516 41.7982L68.9344 25.5342C70.468 24.1403 71.6669 22.4182 72.4418 20.4961C73.2167 18.5741 73.5474 16.5019 73.4094 14.4342ZM50 38.5326L33.1688 23.2248C31.9823 22.1452 31.055 20.8117 30.456 19.3236C29.857 17.8356 29.6018 16.2315 29.7094 14.631C29.8003 13.037 30.2501 11.4841 31.0253 10.0883C31.8004 8.69251 32.8809 7.48984 34.1859 6.5701C36.0501 5.25895 38.2967 4.60373 40.5735 4.70723C42.8502 4.81073 45.0281 5.66709 46.7656 7.14197L48.9891 9.02635C49.5719 9.51854 50.4266 9.51854 51.0094 9.02635L53.2344 7.14041C54.9725 5.66677 57.1503 4.81121 59.4266 4.70773C61.703 4.60424 63.9494 5.25868 65.8141 6.56854C67.1191 7.48828 68.1996 8.69095 68.9747 10.0868C69.7499 11.4826 70.1997 13.0355 70.2906 14.6295C70.3985 16.23 70.1435 17.8342 69.5444 19.3223C68.9454 20.8103 68.0179 22.1439 66.8312 23.2232L50 38.5326Z" fill="white"/>
</svg>
