<svg width="100" height="100" viewBox="0 0 100 100" fill="none" xmlns="http://www.w3.org/2000/svg">
<path d="M73.6136 7.01169C70.1505 7.00318 66.7202 7.68178 63.5212 9.00818C60.3223 10.3346 57.4182 12.2824 54.9773 14.7389L50 19.7162L45.0227 14.7389C41.3356 11.045 36.635 8.52856 31.5164 7.50847C26.3978 6.48837 21.0917 7.01051 16.2701 9.00875C11.4485 11.007 7.32859 14.3914 4.43219 18.7332C1.53579 23.075 -0.00671279 28.1788 9.89996e-05 33.398C-0.012623 39.0182 1.20093 44.5734 3.55611 49.6763C5.91129 54.7792 9.35138 59.3068 13.6364 62.9434L34.3182 80.6479C34.4551 80.943 34.6538 81.2053 34.9008 81.4171C35.1478 81.6288 35.4374 81.785 35.75 81.8752L48.5227 92.8297C48.9344 93.1818 49.4583 93.3753 50 93.3753C50.5417 93.3753 51.0656 93.1818 51.4773 92.8297L86.3636 62.8525C90.6486 59.2159 94.0887 54.6883 96.4439 49.5854C98.7991 44.4825 100.013 38.9272 99.9999 33.3071C99.9639 26.3285 97.1695 19.6473 92.2263 14.7211C87.2831 9.79495 80.5923 7.0236 73.6136 7.01169ZM50 88.1024L38.75 78.4661L40.6818 57.307C40.7416 56.7004 40.6749 56.0879 40.486 55.5083C40.2971 54.9287 39.9901 54.3946 39.5843 53.9397C39.1785 53.4848 38.6828 53.119 38.1284 52.8653C37.5741 52.6117 36.9732 52.4758 36.3637 52.4661C35.163 52.4909 33.9698 52.2727 32.8556 51.8246C31.7415 51.3765 30.7294 50.7078 29.8803 49.8586C29.0311 49.0095 28.3624 47.9974 27.9143 46.8833C27.4662 45.7691 27.248 44.5759 27.2728 43.3753C29.7144 43.3807 32.1257 42.8336 34.3259 41.7748C36.5261 40.7161 38.4581 39.1731 39.9773 37.2616L41.3637 35.5344C42.2468 34.4195 43.374 33.5221 44.6585 32.9114C45.943 32.3007 47.3506 31.9929 48.7727 32.0116H49.7273C52.2086 32.0181 54.5865 33.0068 56.3409 34.7616C57.2139 35.6274 57.9064 36.6577 58.3785 37.7929C58.8505 38.9282 59.0927 40.1458 59.0909 41.3753V52.4661C59.0909 53.6717 58.612 54.8278 57.7596 55.6803C56.9071 56.5327 55.751 57.0116 54.5454 57.0116C53.3399 57.0116 52.1838 56.5327 51.3313 55.6803C50.4789 54.8278 50 53.6717 50 52.4661V38.8298C50 38.227 49.7606 37.649 49.3343 37.2228C48.9081 36.7965 48.33 36.5571 47.7273 36.5571C47.1245 36.5571 46.5464 36.7965 46.1202 37.2228C45.694 37.649 45.4546 38.227 45.4546 38.8298V52.4661C45.4526 54.3135 46.0135 56.1177 47.0626 57.6383C48.1116 59.1589 49.5991 60.3238 51.3268 60.9778C53.0545 61.6319 54.9405 61.7441 56.7336 61.2994C58.5266 60.8548 60.1417 59.8744 61.3636 58.4889C62.5473 63.2003 64.2311 67.7717 66.3863 72.1252L67.1363 73.6025L50 88.1024ZM83.4999 59.3979L70.6136 70.4434L70.3863 69.9888C65.9377 61.1043 63.6042 51.3113 63.5682 41.3753V41.1025C63.5085 37.4613 62.0184 33.9897 59.42 31.4381C56.8216 28.8865 53.3236 27.4597 49.6818 27.4662H48.7273C46.6398 27.4634 44.5786 27.932 42.6975 28.8371C40.8165 29.7423 39.1641 31.0605 37.8637 32.6935L36.4773 34.4207C35.3767 35.8042 33.9764 36.9199 32.382 37.6836C30.7876 38.4474 29.0406 38.8393 27.2728 38.8298C26.0672 38.8298 24.9111 39.3087 24.0587 40.1611C23.2062 41.0136 22.7273 42.1697 22.7273 43.3753C22.7152 45.1415 23.0545 46.8924 23.7255 48.5263C24.3965 50.1601 25.3858 51.6441 26.6358 52.892C27.8858 54.1398 29.3715 55.1266 31.0064 55.7948C32.6414 56.4631 34.3929 56.7994 36.1591 56.7843L34.5228 74.7616L16.5001 59.307C12.7621 56.1016 9.75922 52.1279 7.69621 47.6567C5.6332 43.1856 4.55856 38.3221 4.54554 33.398C4.54581 29.0799 5.82609 24.8587 8.22459 21.2679C10.6231 17.6771 14.0322 14.8779 18.021 13.224C22.0099 11.5701 26.3995 11.1357 30.6352 11.9757C34.8708 12.8157 38.7624 14.8925 41.8182 17.9435L48.3864 24.5344C48.5976 24.7474 48.849 24.9165 49.126 25.0319C49.4029 25.1472 49.7 25.2067 50 25.2067C50.3 25.2067 50.5971 25.1472 50.874 25.0319C51.151 24.9165 51.4024 24.7474 51.6136 24.5344L58.1818 17.9435C61.2376 14.8925 65.1292 12.8157 69.3648 11.9757C73.6005 11.1357 77.9901 11.5701 81.979 13.224C85.9678 14.8779 89.3769 17.6771 91.7754 21.2679C94.1739 24.8587 95.4542 29.0799 95.4545 33.398C95.4545 38.3375 94.3862 43.2185 92.3227 47.7063C90.2593 52.1941 87.2495 56.1825 83.4999 59.3979Z" fill="white"/>
</svg>
