<svg width="100" height="100" viewBox="0 0 100 100" fill="none" xmlns="http://www.w3.org/2000/svg">
<g clip-path="url(#clip0_247_125)">
<path d="M25.8704 46.7484L26.0809 46.8834L15.2379 63.7984C13.468 66.56 12.6516 69.7485 12.8759 73.0206C13.1003 76.2934 14.3453 79.3399 16.4765 81.8345C18.6089 84.3282 21.4258 86.0315 24.6245 86.7627L25.8704 46.7484ZM25.8704 46.7484L26.0809 46.8833C30.5339 39.9351 38.1191 35.7869 46.3706 35.7869C54.6227 35.7869 62.207 39.9351 66.6611 46.8834L77.5038 63.7976C79.2739 66.56 80.0903 69.7485 79.8651 73.0221C79.6401 76.2949 78.3943 79.3422 76.2624 81.836C74.1291 84.3297 71.3122 86.0331 68.1136 86.7635C66.9864 87.0203 65.8492 87.1486 64.7192 87.1486C62.6409 87.1486 60.5808 86.7165 58.6355 85.8612C50.9075 82.4625 42.0531 82.4326 34.3058 85.772L34.3033 85.7731M25.8704 46.7484L34.3033 85.7731M34.3033 85.7731L34.1049 85.8612M34.3033 85.7731L34.1049 85.8612M72.5406 77.9383L72.1877 78.3508C69.3581 81.6587 64.7783 82.7051 60.794 80.9533L60.8946 80.7244L60.794 80.9533C56.2104 78.9372 51.2902 77.9295 46.3682 77.9295C41.4511 77.9295 36.5316 78.9363 31.9513 80.95L72.5406 77.9383ZM72.5406 77.9383H72.5219C75.0378 74.6619 75.2425 70.2066 72.9893 66.6909L62.1475 49.7766L62.1474 49.7766C58.6841 44.375 52.7859 41.1494 46.3706 41.1494C39.9551 41.1494 34.0578 44.3748 30.5955 49.7766L19.7517 66.6916L19.9622 66.8266L19.7517 66.6917C17.4036 70.3557 17.7253 75.0419 20.5518 78.3507L20.5519 78.3508C23.3503 81.6219 27.8626 82.6817 31.8164 81.0096L31.8201 81.008L31.9509 80.9501L72.5406 77.9383ZM6.3051 35.9107L6.30499 35.9104C4.61042 31.4996 6.07137 26.7114 9.71095 25.3122L9.7111 25.3121C10.3661 25.0608 11.062 24.9328 11.7636 24.9346M6.3051 35.9107L11.763 25.1846M6.3051 35.9107C8.0048 40.3176 12.2972 42.8904 15.9322 41.4891L15.9323 41.4894L15.9404 41.4858C17.6105 40.8419 18.8897 39.4338 19.5541 37.5449C20.2794 35.4832 20.1993 33.1207 19.3418 30.8917L19.3418 30.8916C18.4835 28.6641 16.9578 26.8572 15.0372 25.8134M6.3051 35.9107L14.9177 26.033M11.7636 24.9346L11.763 25.1846M11.7636 24.9346C11.7634 24.9346 11.7632 24.9346 11.763 24.9346V25.1846M11.7636 24.9346C12.8515 24.9347 13.9684 25.2318 15.0372 25.8134M11.763 25.1846C12.8052 25.1846 13.8815 25.4691 14.9177 26.033M15.0372 25.8134C15.0371 25.8134 15.0371 25.8134 15.037 25.8134L14.9177 26.033M15.0372 25.8134L14.9177 26.033M34.1049 85.8612C31.1008 87.1817 27.823 87.493 24.6245 86.7627L34.1049 85.8612ZM17.8585 46.4928L17.8582 46.4929C16.5985 46.9782 15.2599 47.2263 13.91 47.2246H13.9096C8.70372 47.2246 3.52541 43.605 1.30122 37.8369C-1.48525 30.5831 1.46147 22.7397 7.78452 20.3085L7.78471 20.3085C10.9316 19.0956 14.4158 19.3726 17.598 21.102C20.6273 22.7496 23.0256 25.5401 24.3455 28.9649C25.6644 32.392 25.7561 36.0707 24.613 39.3238C23.4109 42.7412 21.0105 45.2822 17.8585 46.4928ZM64.4342 37.3483L64.3958 37.3355H64.3953C57.521 35.0236 53.9996 26.7648 56.6275 18.8578L56.6276 18.8577C57.8728 15.1072 60.31 11.986 63.4839 10.0635C66.8052 8.05214 70.522 7.58027 73.952 8.71965C77.3821 9.86039 80.0753 12.4626 81.5314 16.0613L81.7632 15.9676L81.5314 16.0614C82.9237 19.5008 83.0079 23.4608 81.7603 27.2113L81.9975 27.2902L81.7603 27.2114C79.5932 33.7302 73.9231 37.9465 68.138 37.9465H68.1378C66.8792 37.9472 65.6286 37.7452 64.4342 37.3483ZM72.2615 13.8075L72.2613 13.8075C70.3335 13.1671 68.201 13.4751 66.2624 14.6496C64.1686 15.9179 62.5573 18.0146 61.7158 20.5485C60.0417 25.5851 61.9579 30.8737 66.1253 32.2599L66.1254 32.2599C70.2955 33.6452 74.9984 30.5564 76.6724 25.5198C77.5156 22.9859 77.4796 20.3408 76.5617 18.0724L76.33 18.1662L76.5617 18.0724C75.7111 15.9712 74.1884 14.4489 72.2615 13.8075ZM95.538 36.2367V36.1429C100.617 40.2798 101.217 48.3655 96.7166 54.4528C93.7802 58.4163 89.3931 60.5631 85.1897 60.5631C82.7795 60.5631 80.4291 59.8577 78.4415 58.3853L78.4414 58.3852C72.9984 54.3553 72.249 46.0103 76.8641 39.7675C81.4794 33.5334 89.6705 31.8072 95.1221 35.8201L95.538 36.2367ZM92.6883 50.8639C95.1998 47.1238 94.9721 42.3847 91.951 40.1441L91.9507 40.1439C90.8993 39.3666 89.6509 39.0002 88.3552 39.0002C85.797 39.0002 83.0485 40.4247 81.1749 42.9558L81.1748 42.9559C78.3673 46.7534 78.5 51.7574 81.6319 54.0759C84.7665 56.3976 89.5924 55.0623 92.4074 51.2627L92.7029 50.8639H92.6883ZM53.4257 16.7389C53.4257 25.8602 46.9185 33.224 38.9868 33.224C31.0557 33.224 24.5495 25.8602 24.5495 16.7389C24.5495 7.61515 31.0559 0.25 38.9868 0.25C46.9185 0.25 53.4257 7.61518 53.4257 16.7389ZM48.0641 16.7389C48.0641 10.6546 44.0379 5.61172 38.9868 5.61172C33.9358 5.61172 29.9112 10.6547 29.9112 16.7389C29.9112 22.8208 33.9357 27.8623 38.9868 27.8623C44.0378 27.8623 48.0641 22.8208 48.0641 16.7389Z" fill="white" stroke="#131313" stroke-width="0.5"/>
</g>
<defs>
<clipPath id="clip0_247_125">
<rect width="100" height="100" fill="white"/>
</clipPath>
</defs>
</svg>
