<svg width="100" height="100" viewBox="0 0 100 100" fill="none" xmlns="http://www.w3.org/2000/svg">
<path d="M22.221 67.9831L21.7791 67.5411L24.5191 64.8014C24.5194 64.801 24.5197 64.8007 24.52 64.8004C24.9144 64.4045 25.3833 64.0906 25.8997 63.8769C26.4159 63.6632 26.9692 63.5539 27.5278 63.5551M22.221 67.9831L27.5281 64.1801M22.221 67.9831L21.7791 67.5411C20.9776 68.3426 20.534 69.411 20.5324 70.5445C20.4886 72.8452 22.4903 74.8477 24.7899 74.8071L22.221 67.9831ZM27.5278 63.5551C27.5285 63.5551 27.5291 63.5551 27.5298 63.5551L27.5281 64.1801M27.5278 63.5551C27.5275 63.5551 27.5273 63.5551 27.5271 63.5551L27.5281 64.1801M27.5278 63.5551C31.3012 63.5492 33.211 68.1573 30.5369 70.8218M27.5281 64.1801C30.7444 64.1746 32.3747 68.1083 30.0958 70.3791M30.5369 70.8218L30.5377 70.821L30.0958 70.3791M30.5369 70.8218L30.0958 70.3791M30.5369 70.8218L30.0958 70.3791M47.0275 91.2446C47.5867 91.2459 48.1405 91.1364 48.6571 90.9224C49.1742 90.7082 49.6436 90.3935 50.0383 89.9967L52.7721 87.2628C54.4311 85.6656 54.4307 82.8315 52.7717 81.2345C51.1116 79.5793 48.4154 79.5808 46.7572 81.2393L44.0223 83.9744C42.3631 85.5713 42.364 88.4048 44.0216 90.0018C44.4153 90.3963 44.883 90.7091 45.3979 90.9224C45.9145 91.1364 46.4684 91.2459 47.0275 91.2446ZM47.0275 91.2446C47.0281 91.2446 47.0286 91.2446 47.0292 91.2446L47.0275 90.6196L47.0258 91.2446C47.0264 91.2446 47.027 91.2446 47.0275 91.2446ZM91.1661 11.7999L91.1673 11.8012C102.111 22.7445 102.111 40.5524 91.1669 51.4959L88.2503 54.4123L88.0553 54.6073L88.0679 54.8828C88.2991 59.9439 83.9715 64.45 79.004 64.5255L78.3979 64.5347L78.3886 65.1408C78.3149 69.9265 74.1223 74.1205 69.3352 74.1944L68.7291 74.2037L68.7199 74.8098C68.6476 79.5483 64.5234 83.7285 59.782 83.8607L59.1946 83.8771L59.1748 84.4644C59.0424 88.3949 57.2014 90.1991 54.5312 92.8159C54.2585 93.0832 53.9771 93.359 53.688 93.6463L53.6851 93.6492C48.6161 98.7542 39.7717 96.3808 37.9341 89.4463L37.7726 88.8367L37.1645 89.0037C31.5679 90.5407 25.7179 86.3662 25.392 80.5535L25.3583 79.9534L24.7574 79.9636C19.4474 80.0533 14.9377 75.1951 15.3992 69.9202L15.4517 69.319L14.8528 69.2454C7.13561 68.2968 3.87822 58.5493 9.55275 53.1297L10.0316 52.6724L9.54741 52.2207C-2.03138 41.4191 -2.41174 22.9899 8.82221 11.8023L8.82437 11.8001C20.12 0.440363 38.7709 1.00119 49.5332 12.816L49.9953 13.3233L50.4573 12.816C61.2188 1.0008 79.8705 0.440549 91.1661 11.7999ZM13.0768 56.9053L13.0677 56.9145L13.0589 56.924C9.25213 61.0602 14.9435 66.7481 19.0774 62.9424L19.0869 62.9336L19.096 62.9245L21.8344 60.1861C24.5175 57.5157 22.5704 52.8984 18.8249 52.9208C18.2665 52.9202 17.7134 53.0296 17.1974 53.2431C16.6806 53.4568 16.2112 53.7705 15.816 54.1662L13.0768 56.9053ZM28.1339 73.2248C28.1384 73.2198 28.1428 73.2148 28.1472 73.2097L27.6786 72.7962L28.1205 73.2382L28.1339 73.2248ZM40.5291 74.1483L40.5283 74.1474C38.6805 72.3067 35.7979 72.5783 34.1693 74.4887L31.7746 76.8836C30.1161 78.4805 30.1162 81.3145 31.7748 82.9113C33.435 84.5672 36.1311 84.5661 37.7894 82.9071C37.7895 82.9071 37.7895 82.907 37.7895 82.907L40.5291 80.1674L40.5292 80.1674C42.1888 78.5072 42.1889 75.8083 40.5291 74.1483ZM43.8871 31.2059L44.3291 30.764L38.4199 24.8548L45.904 17.3707L46.3211 16.9535L45.9287 16.513C37.1821 6.69534 21.7949 6.0658 12.4733 15.451C3.09974 24.7618 3.7112 40.1282 13.5074 48.8788L13.8423 49.178L14.2326 48.9561C20.6472 45.3103 28.7836 50.4169 28.2153 57.8125L28.1689 58.4167L28.7713 58.4818C33.0637 58.9455 36.72 62.8521 36.9157 67.1487L36.9435 67.7584L37.5537 67.7451C41.5876 67.6572 45.6271 70.7003 46.6036 74.6903L46.7545 75.307L47.3688 75.1464C50.4551 74.3392 53.8688 75.1183 56.3103 77.4787L56.7521 77.9059L56.7798 77.8782C58.4452 79.115 60.8151 78.9784 62.3249 77.4686C63.9849 75.8086 63.9849 73.1092 62.3249 71.4492L48.4996 57.6238L52.1493 53.9741L65.9747 67.7994C67.6346 69.4593 70.3338 69.4599 71.9939 67.7994C73.6536 66.1394 73.6536 63.4403 71.9939 61.7803L71.5519 62.2222L71.9938 61.7803L58.1685 47.9549L61.8182 44.3052L75.6392 58.1262C77.2362 59.785 80.0702 59.7846 81.6672 58.1261C83.3224 56.4658 83.321 53.7698 81.6635 52.1115L81.6634 52.1114L62.3307 32.7785L61.9776 32.4254L61.5553 32.6918C56.1912 36.0755 48.9963 35.4316 44.3291 30.764L43.8871 31.2059ZM87.5175 47.8462L87.5267 47.837L87.5354 47.8275C108.109 25.4844 77.5003 -5.14604 55.1415 15.433L55.132 15.4418L55.1228 15.4509L46.1609 24.4129L45.719 24.8548L46.1609 25.2967L47.9784 27.1142L48.4203 26.6723L47.9784 27.1142C51.3806 30.5162 56.9142 30.5158 60.3157 27.1142L62.1407 25.2894L85.3127 48.4616C85.4231 48.5721 85.5309 48.6852 85.6359 48.8009L86.0768 49.2866L86.5406 48.8229L87.5175 47.8462Z" fill="white" stroke="#131313" stroke-width="1.25"/>
</svg>
